<?xml version="1.0" standalone="no"?><!DOCTYPE svg PUBLIC "-//W3C//DTD SVG 1.1//EN" "http://www.w3.org/Graphics/SVG/1.1/DTD/svg11.dtd"><svg width="100%" height="100%" viewBox="0 0 1005 308" version="1.1" xmlns="http://www.w3.org/2000/svg" xmlns:xlink="http://www.w3.org/1999/xlink" xml:space="preserve" style="fill-rule:evenodd;clip-rule:evenodd;stroke-linejoin:round;stroke-miterlimit:1.41421;"><g id="grafit-logo"><g id="letters"><path d="M124.358,111.972l0,47.759l49.619,0c-2.481,26.98 -22.639,40.625 -48.999,40.625c-40.005,0 -61.714,-36.904 -61.714,-73.188c0,-35.664 20.778,-73.808 60.784,-73.808c24.499,0 42.176,14.886 50.549,37.214l57.682,-24.189c-20.158,-43.727 -57.372,-65.435 -105.44,-65.435c-75.359,0 -126.839,49.929 -126.839,125.908c0,73.498 51.17,123.427 124.668,123.427c39.075,0 73.498,-13.955 96.447,-45.897c20.778,-29.151 23.259,-58.303 23.879,-92.416l-120.636,0Z" style="fill:#78b1b1;fill-rule:nonzero;"/><path d="M362.854,146.706c33.183,-5.893 51.17,-33.803 51.17,-66.056c0,-49.929 -35.044,-71.947 -81.251,-71.947l-90.865,0l0,233.829l60.783,0l0,-89.934l0.62,0l57.372,89.934l75.669,0l-73.498,-95.826ZM302.691,55.221l5.892,0c19.848,0 42.176,3.721 42.176,29.151c0,25.429 -22.328,29.151 -42.176,29.151l-5.892,0l0,-58.302Z" style="fill:#78b1b1;fill-rule:nonzero;"/><path d="M548.176,201.907l15.196,40.625l64.815,0l-88.074,-233.829l-66.365,0l-89.935,233.829l64.505,0l16.126,-40.625l83.732,0ZM531.74,155.389l-50.55,0l25.12,-74.429l0.62,0l24.81,74.429Z" style="fill:#78b1b1;fill-rule:nonzero;"/><path d="M548.176,201.907l15.196,40.625l64.815,0l-88.074,-233.829l-66.365,0l-89.935,233.829l64.505,0l16.126,-40.625l83.732,0ZM531.74,155.389l-50.55,0l25.12,-74.429l0.62,0l24.81,74.429Z" style="fill:#78b1b1;fill-rule:nonzero;"/><path d="M762.601,60.182l0,-51.479l-134.282,0l0,233.829l64.945,0l0,-91.795l62.514,0l0,-51.48l-62.514,0l0,-39.075l69.337,0Z" style="fill:#f47963;fill-rule:nonzero;"/><rect x="773.202" y="8.703" width="60.783" height="233.83" style="fill:#f47963;fill-rule:nonzero;"/><path d="M954.761,60.182l50.239,0l0,-51.479l-161.262,0l0,51.479l50.239,0l0,182.35l60.784,0l0,-182.35Z" style="fill:#f47963;fill-rule:nonzero;"/></g><g id="dot-icon"><circle cx="628.319" cy="242.532" r="64.945" style="fill:#ffbf00;"/><path d="M563.374,242.532c0,-27.743 17.434,-51.446 41.933,-60.743l22.88,60.743l-64.813,0Z" style="fill:#5da09f;"/><path d="M628.319,242.493l-22.995,-60.75c7.111,-2.696 14.816,-4.179 22.863,-4.195l0.132,64.945Z" style="fill:#f47963;"/></g></g></svg>